<svg version="1.1"
	 xmlns="http://www.w3.org/2000/svg" xmlns:xlink="http://www.w3.org/1999/xlink" xmlns:a="http://ns.adobe.com/AdobeSVGViewerExtensions/3.0/"
	 x="0px" y="0px" width="65px" height="79px" viewBox="0 0 65 79" enable-background="new 0 0 65 79" xml:space="preserve">
<defs>
</defs>
<path fill="#2EB398" d="M0,0h65v61.856c0,1.226-0.91,2.652-2.021,3.172L34.52,78.304c-1.111,0.519-2.93,0.519-4.04,0L2.02,65.028
	C0.909,64.509,0,63.082,0,61.856V0z"/>
<path fill="#FFFFFF" d="M11.265,58.598h7.077v2.972h-7.077c-3.681,0-5.096-1.531-5.096-4.599v-8.295H9.85v8.295
	C9.85,57.497,10.135,58.598,11.265,58.598z M20.041,61.556h3.68v-12.88h-3.68V61.556z M37.309,57.006c0,0.307-0.166,0.46-0.498,0.46
	c-0.848,0-3.605-6.433-4.236-7.412c-0.234-0.365-1.206-1.524-2.557-1.524c-3.064,0-4.598,0.302-4.598,4.302v8.741h3.679v-8.741
	c0-0.307,0.165-0.462,0.497-0.462c0.689,0,3.609,9.413,6.794,9.413c2.599,0,4.6,0.086,4.6-4.352v-8.755h-3.681V57.006z
	 M47.381,54.471c0.352,0.382,0.352,1,0.004,1.375l-4.727,4.894l-0.754,0.83h4.84l2.974-3.242c0.163-0.177,0.382-0.273,0.611-0.273
	c0.231,0,0.448,0.097,0.612,0.275l2.484,2.696l0.014,0.015l0.008,0.008l0.471,0.521h4.84l-5.482-5.72
	c-0.35-0.38-0.35-0.997-0.002-1.374l5.557-5.8h-4.848l-0.535,0.599l-0.011,0.008L53.424,49.3l-2.482,2.695
	c-0.164,0.175-0.381,0.275-0.612,0.275c-0.229,0-0.448-0.099-0.61-0.275l-3.043-3.319h-4.838l0.822,0.912L47.381,54.471z"/>
<path fill="#004D40" d="M6.169,33.132h3.937c0.644,0,1.116,0.146,1.418,0.437c0.301,0.293,0.453,0.738,0.453,1.334
	c0,0.396-0.086,0.716-0.256,0.961c-0.172,0.246-0.381,0.419-0.631,0.518c0.531,0.145,0.893,0.499,1.084,1.062
	c0.064,0.203,0.098,0.439,0.098,0.71c0,0.643-0.151,1.115-0.453,1.417c-0.301,0.302-0.774,0.453-1.418,0.453H6.169V33.132z
	 M10.203,35.101c0-0.394-0.195-0.591-0.59-0.591H7.94v1.379h1.673c0.395,0,0.59-0.198,0.59-0.59V35.101z M10.498,37.857
	c0-0.394-0.195-0.593-0.589-0.593H7.94v1.38h1.969c0.394,0,0.589-0.195,0.589-0.592V37.857z"/>
<path fill="#004D40" d="M15.963,38.693c0.348,0,0.74-0.065,1.18-0.197v-3.691h1.725v5.218h-1.525l-0.1-0.492
	c-0.309,0.204-0.625,0.353-0.949,0.448c-0.326,0.096-0.6,0.142-0.823,0.142h-0.442c-0.445,0-0.805-0.133-1.073-0.401
	c-0.27-0.271-0.403-0.628-0.403-1.074v-3.84h1.723v3.543c0,0.102,0.032,0.182,0.098,0.246c0.066,0.066,0.149,0.1,0.248,0.1H15.963z"
	/>
<path fill="#004D40" d="M22.509,35.004v5.019h-1.724v-3.691h-0.737v-1.327H22.509z M20.785,33.032h1.724v1.379h-1.724V33.032z"/>
<path fill="#004D40" d="M26.643,40.022c-0.439,0.064-0.857,0.098-1.254,0.098c-0.398,0-0.731-0.133-1-0.401
	c-0.27-0.271-0.404-0.628-0.404-1.074v-5.513h1.724v5.266c0,0.099,0.032,0.181,0.099,0.247c0.065,0.064,0.147,0.099,0.246,0.099
	h0.59V40.022z"/>
<path fill="#004D40" d="M31.27,40.022c-0.636,0.064-1.26,0.098-1.871,0.098c-0.445,0-0.803-0.133-1.072-0.401
	c-0.27-0.271-0.403-0.628-0.403-1.074v-2.51h-0.591v-1.33h0.591l0.196-1.181h1.525v1.181h1.231v1.33h-1.231v2.263
	c0,0.099,0.033,0.181,0.1,0.247c0.064,0.064,0.146,0.099,0.244,0.099h1.281V40.022z"/>
<path fill="#004D40" d="M41.408,37.955l0.885-3.15h1.871l-1.625,5.218h-1.82l-0.984-3.15l-0.984,3.15h-1.821l-1.624-5.218h1.871
	l0.885,3.15l0.886-3.15h1.575L41.408,37.955z"/>
<path fill="#004D40" d="M47.217,35.004v5.019h-1.725v-3.691h-0.738v-1.327H47.217z M45.492,33.032h1.725v1.379h-1.725V33.032z"/>
<path fill="#004D40" d="M52.333,40.022c-0.636,0.064-1.259,0.098-1.87,0.098c-0.444,0-0.803-0.133-1.072-0.401
	c-0.27-0.271-0.404-0.628-0.404-1.074v-2.51h-0.59v-1.33h0.59l0.198-1.181h1.524v1.181h1.232v1.33h-1.232v2.263
	c0,0.099,0.033,0.181,0.1,0.247c0.065,0.064,0.146,0.099,0.246,0.099h1.278V40.022z"/>
<path fill="#004D40" d="M55.238,34.902c0.636-0.13,1.193-0.195,1.674-0.195h0.441c0.447,0,0.805,0.134,1.072,0.404
	c0.27,0.269,0.404,0.627,0.404,1.072v3.839h-1.723v-3.642c0-0.099-0.032-0.179-0.099-0.246c-0.065-0.067-0.148-0.099-0.245-0.099
	h-0.345c-0.25,0-0.478,0.012-0.685,0.039c-0.207,0.026-0.373,0.046-0.496,0.06v3.888h-1.724v-6.891h1.724V34.902z"/>
<line fill="none" stroke="#00897B" stroke-miterlimit="10" x1="6.169" y1="44.037" x2="58.83" y2="44.037"/>
</svg>
