<?xml version="1.0" encoding="utf-8"?>
<!-- Generator: Adobe Illustrator 15.0.2, SVG Export Plug-In  -->
<!DOCTYPE svg PUBLIC "-//W3C//DTD SVG 1.1//EN" "http://www.w3.org/Graphics/SVG/1.1/DTD/svg11.dtd" [
	<!ENTITY ns_flows "http://ns.adobe.com/Flows/1.0/">
]>
<svg version="1.1"
	 xmlns="http://www.w3.org/2000/svg" xmlns:xlink="http://www.w3.org/1999/xlink" xmlns:a="http://ns.adobe.com/AdobeSVGViewerExtensions/3.0/"
	 x="0px" y="0px" width="14px" height="18px" viewBox="0 0 14 18" enable-background="new 0 0 14 18" xml:space="preserve">
<defs>
</defs>
<path fill="#999999" d="M10.672,1.199h-2.17V0.734C8.502,0.346,7.75,0,7.385,0H6.094C5.721,0,5.127,0.346,5.127,0.746v0.453H2.721
	C1.422,1.199,0,2.4,0,3.6h0.326H13.5l0,0C13.5,3.6,11.979,1.199,10.672,1.199z M5.967,0.734c0-0.059,1.688-0.059,1.688,0.012v0.453
	H5.967V0.734z M2.67,18h8.127l1.6-12.6H1.068L2.67,18z M9.834,6.6h1.029l-1.17,9.6H8.955L9.834,6.6z M7.252,6.6l-0.143,9.6H6.373
	L6.227,6.6H7.252z M4.512,16.199H3.775L2.607,6.6h1.031L4.512,16.199z"/>
</svg>
