<svg version="1.1"
	 xmlns="http://www.w3.org/2000/svg" xmlns:xlink="http://www.w3.org/1999/xlink" xmlns:a="http://ns.adobe.com/AdobeSVGViewerExtensions/3.0/"
	 x="0px" y="0px" width="534px" height="163px" viewBox="-7 -5.292 534 163" enable-background="new -7 -5.292 534 163"
	 xml:space="preserve">
<defs>
<style>
.formtext, .labeltext {
	font-size:3px;
	text-transform:uppercase;
	font-weight:800;
	font-family:sans-serif
}
.linecover {
    animation: linecoverani 1s linear forwards;
	position:absolute;
	right:0;
	top:0;
}
@keyframes linecoverani {
    100% {
        transform: scaleX(1.5);
		width:0;
    }
}
.arrow1 {
	opacity:0;
	transform: translateX(-10px);
    animation: arrow1sani 1s linear forwards;
}
@keyframes arrow1sani {
    10% {
        opacity:1;
    }
    100% {
        opacity:1;
    }
}
.arrow2 {
	opacity:0;
	transform: translateX(-10px);
    animation: arrow2sani 1s linear forwards;
}
@keyframes arrow2sani {
    10% {
        opacity:1;
    }
    100% {
        opacity:1;
    }
}
.arrow3 {
	opacity:0;
	transform: translateX(-10px);
    animation: arrow3sani 1s linear forwards;
}
@keyframes arrow3sani {
    10% {
        opacity:1;
    }
    100% {
        opacity:1;
    }
}
.arrow4 {
	opacity:0;
	transform: translateX(-10px);
    animation: arrow4sani 1s linear forwards;
}
@keyframes arrow4sani {
    10% {
        opacity:1;
    }
    100% {
        opacity:1;
    }
}
.Linx {
	opacity:0;
    animation: linxani 1s linear forwards;
}
@keyframes linxani {
    10% {
        opacity:1;
    }
    100% {
        opacity:1;
    }
}
.cog1 {
	animation: cogani 1s linear forwards;
	transform-origin:333px 42px;
	opacity:0;
}
.cog2 {
	animation: cogani 1s linear forwards;
	transform-origin:388px 34px;
	opacity:0;
}
@keyframes cogani {
    10% {
        opacity:1;
		transform: rotate(0deg);
    }
    20% {
        opacity:1;
		transform: rotate(360deg);
    }
    30% {
        opacity:1;
		transform: rotate(720deg);
    }
    40% {
        opacity:1;
		transform: rotate(1080deg);
    }
    50% {
        opacity:1;
		transform: rotate(1440deg);
    }
    60% {
        opacity:1;
		transform: rotate(1800deg);
    }
    70% {
        opacity:1;
		transform: rotate(2160deg);
    }
    80% {
        opacity:1;
		transform: rotate(2520deg);
    }
    90% {
        opacity:1;
		transform: rotate(2880deg);
    }
    100% {
        opacity:1;
		transform: rotate(3240deg);
    }
}
.line {
	opacity:0;
    animation: lineani 3s linear forwards;
	stroke-dasharray: 450;
	stroke-dashoffset: 450;
}
@keyframes lineani {
    10% {
        opacity:1;
	    stroke-dashoffset: 225;
    }
    100% {
        opacity:1;
		stroke-dashoffset: 0;
    }
}
.recipient {
	opacity:0;
	transform: scale(.8) translate(537px,104px);
    animation: recipientani 3s linear forwards;
	//animation-iteration-count: infinite;
}
@keyframes recipientani {
    10% {
        opacity:1;
    }
    100% {
        opacity:1;
    }
}
.linecover1 {
	animation-delay: .4s;
}
.linecover2 {
	animation-delay: .8s;
}
.linecover3 {
	animation-delay: 1.2s;
}
.linecover4 {
	animation-delay: 1.6s;
}
.arrow1 {
	animation-delay: 2s;
}
.arrow2 {
	animation-delay: 2.4s;
}
.arrow3 {
	animation-delay: 2.8s;
}
.arrow4 {
	animation-delay: 3.2s;
}
.Linx, 
.cog1, 
.cog2 {
	animation-delay: 3.4s;
}
.line {
	animation-delay: 4.4s;
}
.recipient {
	animation-delay: 5s;
}
</style>
</defs>
<g class="laptop">
	<rect x="28.904" y="42.406" fill="#1A237E" width="152.596" height="93.09"/>
	<path fill="#757575" d="M190.466,138.427H19.82V42.235c0-3.554,2.783-6.438,6.339-6.438h157.767c3.557,0,6.54,2.884,6.54,6.438
		V138.427z M180.004,45.859H29.881V134h150.123V45.859z"/>
	<path fill="#666666" d="M0,143.027c0,0.747,10.268,3.148,12.678,3.148h184.932c2.412,0,12.68-2.401,12.68-3.148H0z"/>
	<path fill="#CCCCCC" d="M208.939,138.526H1.349c-0.993,0-1.349,0.358-1.349,1.351v3.15h210.289v-3.15
		C210.289,138.885,209.934,138.526,208.939,138.526z"/>
	<rect x="0.027" y="139.778" fill="#666666" width="210.248" height="0.45"/>
	<circle fill="#666666" cx="17.842" cy="141.345" r="0.518"/>
	<circle fill="#666666" cx="12.04" cy="141.345" r="0.518"/>
	<circle fill="#666666" cx="6.238" cy="141.345" r="0.518"/>
	<circle fill="#808080" cx="105.144" cy="41.231" r="1.476"/>
	<linearGradient id="SVGID_2_" gradientUnits="userSpaceOnUse" x1="88.0156" y1="50.1797" x2="260.2756" y2="109.0765">
		<stop  offset="0" style="stop-color:#FFFFFF"/>
		<stop  offset="1" style="stop-color:#FFFFFF;stop-opacity:0"/>
	</linearGradient>
	<path opacity="0.12" fill="url(#SVGID_2_)" d="M190.518,132.588V42.438c0-3.556-2.982-6.438-6.54-6.438H88.586L190.518,132.588z"/>
	<line opacity="0.12" fill="none" stroke="#000000" stroke-width="0.5" stroke-linecap="round" stroke-miterlimit="10" x1="20.131" y1="140.389" x2="20.131" y2="142.854"/>
</g>
<g class="screen">
	<rect class="form" x="61.311" y="56" fill="#1565C0" width="87.667" height="70"/>

	<text class="line1label labeltext" x="67" y="67" fill="rgb(119, 177, 235)" width="55" height="3.309">Name</text>
	<rect class="line1" x="66.871" y="68" fill="#283086" width="55" height="3.309"/>
	<text class="line1text formtext" x="68.2" y="70.9" fill="#ffffff" width="55" height="3.309">John Lennon</text>
	<rect class="linecover linecover1" x="66.871" y="68" fill="#283086" width="55" height="3.309"/>

	<text class="line2label labeltext" x="67" y="79" fill="rgb(119, 177, 235)" width="55" height="3.309">Job</text>
	<rect class="line2" x="66.871" y="80" fill="#283086" width="55" height="3.311"/>
	<text class="line2text formtext" x="68.2" y="82.9" fill="#ffffff" width="55" height="3.309">Beatle</text>
	<rect class="linecover linecover2" x="66.871" y="80" fill="#283086" width="55" height="3.309"/>

	<text class="line3label labeltext" x="67" y="91" fill="rgb(119, 177, 235)" width="55" height="3.309">Instrument</text>
	<rect class="line3" x="66.871" y="92" fill="#283086" width="55" height="3.312"/>
	<text class="line3text formtext" x="68.24" y="94.9" fill="#ffffff" width="55" height="3.309">Guitar</text>
	<rect class="linecover linecover3" x="66.871" y="92" fill="#283086" width="55" height="3.309"/>

	<text class="line4label labeltext" x="67" y="103" fill="rgb(119, 177, 235)" width="55" height="3.309">Awesome</text>
	<rect class="line4" x="66.873" y="104" fill="#283086" width="55" height="3.31"/>
	<text class="line4text formtext" x="68.2" y="106.9" fill="#ffffff" width="55" height="3.309">Very</text>
	<rect class="linecover linecover4" x="66.871" y="104" fill="#283086" width="55" height="3.309"/>

	<rect class="button" x="66.872" y="114" fill="#283086" width="15" height="6"/>
	<text class="buttonlabel labeltext" x="67.6" y="118" fill="#ffffff" width="55" height="3.309">Submit</text>
</g>
<g class="arrows">
	<polygon class="arrow4" fill="#1565C0" points="285.482,56.267 282.117,52.901 290.051,44.967 282.117,37.032 285.482,33.667 296.783,44.967 "/>
	<polygon class="arrow3" fill="#1565C0" points="262.882,56.267 259.517,52.901 267.451,44.967 259.517,37.032 262.882,33.667 274.183,44.967 "/>
	<polygon class="arrow2" fill="#1565C0" points="240.281,56.267 236.916,52.901 244.851,44.967 236.916,37.032 240.281,33.667 251.583,44.967 "/>
	<polygon class="arrow1" fill="#1565C0" points="217.682,56.267 214.316,52.901 222.25,44.967 214.316,37.032 217.682,33.667 228.982,44.967 "/>
</g>
<g class="cog1">
	<path fill="#2EB398" d="M354.177,17.854l-0.09-0.08c-0.161-0.143-0.317-0.273-0.475-0.406l-0.297-0.244
		c-0.15-0.125-0.287-0.238-0.428-0.345c-0.108-0.089-0.211-0.167-0.313-0.248l-0.126-0.096c-0.073-0.049-0.133-0.096-0.196-0.153
		l-0.415-0.359l1.835-5.67l-5.142-2.795l-3.792,4.657l-0.561-0.208c-0.296-0.109-0.603-0.217-0.913-0.319l-0.591-0.186
		c-0.091-0.03-0.184-0.061-0.274-0.086l-0.294-0.087c-0.218-0.063-0.432-0.125-0.649-0.181l-0.577-0.151l-0.431-5.993l-5.816-0.66
		l-1.746,5.678L332.367,10c-0.037,0.008-0.117,0.016-0.215,0.015c-0.61,0.024-1.153,0.06-1.655,0.104l-0.41,0.039
		c-0.375,0.044-0.763,0.086-1.15,0.141l-0.586,0.083l-2.737-5.348l-5.608,1.66l0.612,5.974l-0.541,0.252
		c-0.241,0.113-0.489,0.234-0.727,0.354l-0.151,0.071c-0.623,0.311-1.153,0.598-1.652,0.895l-0.516,0.304l-4.549-3.935l-4.578,3.646
		l2.815,5.312L310.308,20c-0.206,0.218-0.412,0.449-0.608,0.676l-0.106,0.121c-0.148,0.167-0.297,0.335-0.443,0.511
		c-0.018,0.028-0.071,0.096-0.126,0.16l-0.067,0.083c-0.088,0.104-0.159,0.197-0.234,0.285l-0.108,0.134
		c-0.119,0.151-0.244,0.313-0.361,0.473l-0.424,0.556l-0.594-0.142l-5.152-1.668l-2.793,5.136l4.658,3.798l-0.204,0.557
		c-0.108,0.301-0.214,0.604-0.315,0.921c-0.04,0.115-0.072,0.221-0.105,0.328l-0.181,0.562c-0.088,0.292-0.174,0.599-0.255,0.911
		l-0.149,0.582l-5.997,0.438l-0.658,5.805l5.871,1.811l-0.107,0.65c0.024,0.586,0.064,1.162,0.117,1.711
		c0.012,0.127,0.018,0.223,0.029,0.313c0.043,0.43,0.087,0.826,0.142,1.224l0.079,0.584l-5.343,2.733l1.658,5.609l5.982-0.615
		l0.25,0.542c0.127,0.282,0.259,0.56,0.397,0.836l0.035,0.071c0.296,0.586,0.591,1.125,0.884,1.628l0.301,0.517l-3.938,4.545
		l3.649,4.578l5.298-2.811l0.436,0.396c0.218,0.199,0.435,0.395,0.656,0.592c0.062,0.049,0.104,0.088,0.127,0.115
		c0.153,0.131,0.352,0.297,0.547,0.465l0.045,0.034c0.066,0.056,0.138,0.11,0.206,0.169l0.131,0.105
		c0.089,0.07,0.181,0.144,0.271,0.215c0.13,0.105,0.245,0.191,0.358,0.278l0.699,0.572l-1.84,5.685l5.138,2.795l3.792-4.657
		l0.558,0.2c0.306,0.112,0.601,0.219,0.909,0.315c0.169,0.058,0.313,0.102,0.457,0.144c0.17,0.057,0.305,0.1,0.441,0.143
		c0.302,0.092,0.616,0.18,0.923,0.257l0.579,0.153l0.428,5.993l5.82,0.661l1.767-5.77l0.625,0.006
		c-0.009-0.003,0.021-0.006,0.067-0.006c0.479-0.018,1.017-0.052,1.674-0.108l0.403-0.036c0.391-0.044,0.773-0.09,1.158-0.145
		l0.587-0.081l2.734,5.351l5.609-1.658l-0.616-5.968l1.379-0.664c0.027-0.014,0.052-0.027,0.079-0.037
		c0.477-0.243,0.997-0.522,1.638-0.882l0.51-0.287l4.535,3.919l4.576-3.639l-2.814-5.31l0.405-0.437
		c0.205-0.222,0.414-0.447,0.612-0.677l0.043-0.043c-0.007-0.002,0.012-0.02,0.041-0.048c0.159-0.18,0.31-0.36,0.457-0.538
		l0.077-0.094c0.053-0.067,0.107-0.134,0.162-0.196c0.086-0.1,0.183-0.224,0.282-0.354c0.153-0.188,0.272-0.34,0.39-0.496
		l0.113-0.146l0.36-0.437l5.693,1.835l2.794-5.136l-4.659-3.791l0.201-0.556c0.113-0.308,0.217-0.616,0.316-0.928
		c0.036-0.096,0.057-0.167,0.081-0.241L363.409,51c0.031-0.099,0.063-0.192,0.089-0.285l0.069-0.223
		c0.082-0.289,0.169-0.574,0.242-0.865l0.146-0.585l6.007-0.433l0.652-5.816l-5.639-1.734l-0.103-0.476
		c-0.022-0.106-0.026-0.192-0.021-0.263c-0.022-0.528-0.062-1.105-0.115-1.667c-0.009-0.134-0.02-0.259-0.032-0.378l-0.027-0.232
		c-0.036-0.313-0.071-0.629-0.117-0.945l-0.08-0.584l5.348-2.735l-1.658-5.609l-5.979,0.609l-0.249-0.541
		c-0.097-0.206-0.199-0.413-0.299-0.617l-0.144-0.289c-0.274-0.552-0.564-1.092-0.876-1.624l-0.301-0.518l3.934-4.547l-3.649-4.575
		l-5.3,2.808l-0.433-0.396C354.644,18.271,354.408,18.061,354.177,17.854z M336.795,36.244l0.123,0.073
		c0.099,0.072,0.195,0.147,0.327,0.252l0.201,0.156c0.021,0.019,0.044,0.041,0.061,0.058l0.091,0.084
		c0.496,0.454,0.918,0.984,1.238,1.55c0.02,0.04,0.039,0.079,0.063,0.116l0.04,0.076c0.347,0.653,0.576,1.4,0.662,2.164l0.021,0.181
		c0.01,0.065,0.009,0.125,0.008,0.186l0.008,0.146c0.007,0.087,0.013,0.171,0.008,0.302c0.003,0.029-0.001,0.052-0.001,0.08
		l-0.008,0.143c-0.005,0.125-0.009,0.253-0.021,0.391l-0.03,0.166c-0.017,0.145-0.036,0.289-0.076,0.449l-0.057,0.244
		c-0.028,0.121-0.062,0.242-0.091,0.338c-0.031,0.108-0.077,0.224-0.137,0.368l-0.018,0.053c-0.019,0.054-0.037,0.102-0.058,0.158
		c-0.058,0.127-0.117,0.251-0.179,0.375l-0.102,0.196c-0.076,0.14-0.156,0.273-0.239,0.402c-0.025,0.031-0.045,0.066-0.07,0.102
		l-0.03,0.05c-0.067,0.101-0.146,0.191-0.245,0.32l-0.038,0.05c-0.029,0.04-0.057,0.076-0.078,0.106l-0.141,0.151
		c-0.494,0.545-1.061,0.99-1.682,1.328c-0.028,0.015-0.057,0.027-0.082,0.044c-0.04,0.014-0.077,0.034-0.114,0.053
		c-0.627,0.317-1.308,0.521-2.028,0.606l-0.188,0.027c-0.04,0.003-0.078,0.006-0.12,0.008l-0.133,0.005
		c-0.128,0.007-0.253,0.013-0.377,0.013l-0.167-0.006c-0.158-0.003-0.312-0.012-0.521-0.037c-0.044-0.007-0.083-0.012-0.127-0.016
		l-0.104-0.019c-0.11-0.018-0.227-0.037-0.349-0.06c-0.04-0.009-0.082-0.021-0.125-0.031l-0.195-0.049
		c-0.082-0.021-0.172-0.04-0.277-0.077c-0.103-0.03-0.204-0.071-0.265-0.094c-0.079-0.038-0.159-0.065-0.243-0.094l-0.036-0.009
		c-0.136-0.064-0.271-0.128-0.407-0.203c-0.054-0.028-0.109-0.057-0.182-0.084c-0.131-0.071-0.257-0.153-0.379-0.236l-0.075-0.046
		c-0.021-0.011-0.044-0.024-0.07-0.04c-0.099-0.072-0.195-0.146-0.322-0.248l-0.043-0.032c-0.054-0.041-0.107-0.081-0.156-0.121
		l-0.029-0.024c-0.025-0.028-0.058-0.056-0.08-0.077c-0.574-0.516-1.042-1.113-1.396-1.78l-0.017-0.034
		c-0.012-0.026-0.027-0.062-0.053-0.126c-0.3-0.619-0.497-1.279-0.582-1.904c-0.006-0.082-0.02-0.166-0.029-0.244l-0.006-0.025
		c-0.001-0.025,0-0.053,0-0.08l-0.014-0.244c-0.005-0.099-0.01-0.195-0.014-0.297l0.012-0.166c0.004-0.158,0.013-0.314,0.036-0.511
		c0.001-0.026,0.003-0.049,0.015-0.116c0.024-0.165,0.048-0.327,0.072-0.456l0.092-0.358c0.022-0.084,0.04-0.166,0.063-0.239
		c0.038-0.115,0.079-0.226,0.138-0.372l0.021-0.062c0.013-0.038,0.024-0.077,0.06-0.148c0.061-0.137,0.124-0.277,0.191-0.403
		l0.085-0.167c0.076-0.142,0.159-0.269,0.26-0.42l0.076-0.131c0.059-0.087,0.125-0.165,0.188-0.246l0.099-0.129
		c0.025-0.032,0.047-0.066,0.104-0.128c0.028-0.034,0.057-0.067,0.123-0.133c0.484-0.534,1.042-0.976,1.662-1.307l0.085-0.055
		c0.029-0.013,0.05-0.025,0.067-0.034c0.661-0.333,1.366-0.549,2.137-0.64l0.133-0.02c0.067-0.005,0.135-0.008,0.202-0.007
		l0.075-0.003c0.12-0.011,0.251-0.015,0.33-0.018l0.2,0.013c0.155,0.005,0.303,0.008,0.441,0.021l0.064,0.01
		c0.052,0.011,0.106,0.018,0.137,0.02c0.146,0.021,0.296,0.046,0.464,0.08c0.035,0.007,0.073,0.016,0.11,0.027l0.263,0.069
		c0.056,0.016,0.113,0.027,0.223,0.063c0.098,0.03,0.195,0.066,0.34,0.127l0.097,0.034c0.035,0.011,0.073,0.022,0.1,0.033
		c0.144,0.067,0.295,0.141,0.429,0.209l0.136,0.071C336.518,36.066,336.658,36.153,336.795,36.244z"/>
</g>
<g class="cog2">
	<path fill="#2EB398" d="M401.63,18.282l-0.057-0.052c-0.102-0.091-0.204-0.178-0.305-0.26l-0.19-0.157
		c-0.097-0.081-0.184-0.152-0.273-0.222c-0.07-0.057-0.137-0.105-0.201-0.159l-0.081-0.062c-0.046-0.031-0.084-0.061-0.127-0.097
		l-0.266-0.231l1.178-3.638l-3.298-1.792l-2.433,2.986l-0.359-0.134c-0.19-0.069-0.387-0.139-0.587-0.204l-0.377-0.118
		c-0.06-0.021-0.119-0.039-0.178-0.056l-0.188-0.057c-0.14-0.039-0.277-0.08-0.417-0.116l-0.37-0.097l-0.277-3.844l-3.729-0.425
		l-1.121,3.644l-0.332,0.051c-0.023,0.004-0.075,0.011-0.138,0.01c-0.393,0.016-0.74,0.038-1.063,0.066l-0.265,0.024
		c-0.239,0.028-0.488,0.058-0.735,0.091l-0.378,0.053l-1.756-3.43l-3.598,1.064l0.393,3.832l-0.346,0.16
		c-0.155,0.075-0.314,0.152-0.466,0.228l-0.098,0.046c-0.399,0.199-0.74,0.385-1.06,0.574l-0.332,0.194l-2.916-2.522l-2.938,2.337
		l1.806,3.408l-0.264,0.279c-0.131,0.14-0.265,0.287-0.39,0.434l-0.068,0.077c-0.096,0.107-0.191,0.216-0.285,0.328
		c-0.012,0.017-0.046,0.06-0.081,0.102l-0.043,0.055c-0.056,0.065-0.103,0.125-0.151,0.184l-0.068,0.083
		c-0.076,0.098-0.156,0.202-0.231,0.304l-0.272,0.357l-0.38-0.091l-3.307-1.069l-1.791,3.295l2.988,2.436l-0.131,0.355
		c-0.069,0.195-0.138,0.39-0.203,0.593c-0.025,0.073-0.047,0.14-0.067,0.208l-0.116,0.362c-0.057,0.186-0.111,0.384-0.162,0.585
		l-0.098,0.373l-3.847,0.279l-0.422,3.725l3.768,1.16l-0.069,0.418c0.016,0.376,0.041,0.744,0.074,1.098
		c0.007,0.082,0.013,0.143,0.019,0.201c0.028,0.275,0.057,0.529,0.092,0.783l0.05,0.376l-3.426,1.753l1.063,3.6l3.837-0.396
		l0.161,0.349c0.081,0.182,0.165,0.357,0.256,0.535l0.022,0.046c0.189,0.376,0.378,0.722,0.565,1.044l0.194,0.331l-2.526,2.915
		l2.341,2.937l3.398-1.801l0.279,0.253c0.139,0.129,0.278,0.253,0.42,0.38c0.04,0.03,0.067,0.057,0.082,0.073
		c0.099,0.084,0.228,0.192,0.352,0.299l0.027,0.022c0.043,0.036,0.089,0.071,0.135,0.109l0.083,0.067
		c0.057,0.043,0.114,0.092,0.173,0.138c0.084,0.066,0.156,0.121,0.229,0.179l0.449,0.365l-1.181,3.649l3.297,1.792l2.434-2.988
		l0.356,0.129c0.196,0.072,0.387,0.14,0.584,0.201c0.108,0.038,0.199,0.066,0.293,0.093c0.109,0.035,0.196,0.063,0.283,0.091
		c0.193,0.06,0.396,0.117,0.592,0.164l0.371,0.1l0.275,3.844l3.733,0.426l1.134-3.703l0.4,0.005
		c-0.007-0.002,0.014-0.003,0.043-0.003c0.307-0.013,0.651-0.034,1.073-0.07l0.26-0.023c0.249-0.028,0.495-0.057,0.743-0.092
		l0.376-0.051l1.754,3.432l3.599-1.066l-0.396-3.827l0.885-0.426c0.018-0.008,0.034-0.017,0.049-0.024
		c0.308-0.154,0.642-0.334,1.052-0.565l0.327-0.185l2.91,2.514l2.936-2.334l-1.804-3.405l0.259-0.279
		c0.131-0.143,0.265-0.289,0.394-0.435l0.026-0.028c-0.005-0.001,0.009-0.012,0.027-0.03c0.102-0.115,0.197-0.231,0.292-0.344
		l0.051-0.061c0.032-0.044,0.068-0.087,0.103-0.127c0.055-0.064,0.119-0.143,0.181-0.227c0.098-0.121,0.176-0.219,0.251-0.317
		l0.071-0.095l0.23-0.28l3.654,1.178l1.791-3.295l-2.989-2.432l0.131-0.357c0.071-0.196,0.139-0.395,0.203-0.595
		c0.022-0.063,0.036-0.107,0.052-0.155l0.037-0.116c0.021-0.064,0.041-0.126,0.06-0.186l0.042-0.143
		c0.055-0.187,0.109-0.368,0.155-0.555l0.095-0.377l3.852-0.274l0.42-3.732l-3.617-1.113l-0.065-0.305
		c-0.014-0.068-0.017-0.124-0.016-0.167c-0.012-0.34-0.037-0.711-0.072-1.071c-0.005-0.086-0.014-0.164-0.021-0.243l-0.019-0.148
		c-0.021-0.2-0.046-0.402-0.073-0.605l-0.054-0.375l3.432-1.756l-1.063-3.598l-3.836,0.393l-0.159-0.348
		c-0.062-0.133-0.128-0.266-0.192-0.396l-0.092-0.186c-0.176-0.354-0.361-0.701-0.563-1.042l-0.192-0.329l2.525-2.92l-2.344-2.934
		l-3.398,1.801l-0.278-0.252C401.93,18.551,401.779,18.415,401.63,18.282z M390.481,30.08l0.077,0.046
		c0.064,0.047,0.125,0.095,0.211,0.161l0.129,0.102c0.014,0.012,0.027,0.026,0.038,0.036l0.06,0.054
		c0.317,0.29,0.588,0.632,0.793,0.995c0.014,0.024,0.027,0.05,0.042,0.074l0.024,0.048c0.222,0.421,0.369,0.9,0.425,1.391
		l0.013,0.115c0.008,0.041,0.007,0.078,0.006,0.117l0.005,0.094c0.004,0.058,0.009,0.111,0.007,0.195
		c0.001,0.017,0,0.032-0.003,0.051l-0.005,0.09c-0.003,0.081-0.005,0.164-0.013,0.252l-0.02,0.106
		c-0.012,0.093-0.024,0.185-0.049,0.288l-0.037,0.158c-0.02,0.077-0.038,0.154-0.056,0.215c-0.024,0.07-0.052,0.143-0.09,0.236
		l-0.012,0.034c-0.012,0.032-0.022,0.066-0.035,0.103c-0.039,0.08-0.076,0.16-0.116,0.24l-0.065,0.125
		c-0.05,0.089-0.101,0.174-0.154,0.258c-0.015,0.021-0.028,0.043-0.044,0.066l-0.021,0.031c-0.042,0.064-0.093,0.123-0.156,0.205
		l-0.024,0.032c-0.018,0.025-0.036,0.05-0.051,0.068l-0.089,0.097c-0.317,0.35-0.682,0.636-1.079,0.853
		c-0.019,0.009-0.037,0.016-0.054,0.027c-0.024,0.009-0.048,0.022-0.073,0.034c-0.401,0.203-0.837,0.334-1.3,0.391l-0.121,0.017
		c-0.025,0.001-0.051,0.003-0.076,0.003l-0.087,0.005c-0.081,0.006-0.162,0.009-0.239,0.007l-0.108-0.002
		c-0.102-0.002-0.2-0.008-0.333-0.025c-0.029-0.003-0.055-0.007-0.081-0.01l-0.067-0.012c-0.071-0.009-0.146-0.022-0.225-0.039
		c-0.025-0.004-0.052-0.012-0.079-0.018l-0.125-0.032c-0.054-0.013-0.11-0.025-0.18-0.052c-0.064-0.016-0.131-0.043-0.167-0.059
		c-0.051-0.023-0.104-0.041-0.158-0.06l-0.022-0.005c-0.087-0.041-0.174-0.084-0.263-0.131c-0.033-0.02-0.07-0.035-0.115-0.054
		c-0.084-0.046-0.165-0.099-0.244-0.151l-0.048-0.029c-0.013-0.008-0.029-0.016-0.044-0.025c-0.064-0.049-0.127-0.095-0.207-0.161
		l-0.028-0.02c-0.033-0.027-0.069-0.052-0.101-0.077l-0.018-0.016c-0.017-0.02-0.038-0.037-0.052-0.051
		c-0.368-0.331-0.669-0.714-0.896-1.142l-0.011-0.021c-0.007-0.019-0.019-0.04-0.034-0.082c-0.192-0.397-0.319-0.82-0.373-1.222
		c-0.004-0.052-0.013-0.106-0.021-0.155l-0.001-0.018c-0.003-0.017-0.002-0.034-0.002-0.051l-0.008-0.157
		c-0.003-0.063-0.007-0.125-0.009-0.189l0.008-0.106c0.001-0.103,0.007-0.203,0.022-0.328c0-0.019,0.002-0.032,0.011-0.075
		c0.015-0.104,0.03-0.21,0.046-0.292l0.059-0.23c0.013-0.054,0.026-0.107,0.04-0.153c0.024-0.073,0.052-0.146,0.089-0.239
		l0.014-0.039c0.008-0.023,0.017-0.049,0.039-0.096c0.038-0.088,0.077-0.178,0.122-0.258l0.054-0.107
		c0.049-0.091,0.103-0.173,0.166-0.27l0.051-0.081c0.037-0.06,0.08-0.108,0.119-0.161l0.065-0.081
		c0.015-0.021,0.029-0.043,0.065-0.083c0.018-0.021,0.036-0.043,0.078-0.084c0.312-0.344,0.67-0.628,1.066-0.84l0.054-0.035
		c0.021-0.008,0.033-0.014,0.044-0.022c0.425-0.213,0.878-0.353,1.37-0.409l0.087-0.013c0.044-0.003,0.086-0.005,0.129-0.005
		l0.048-0.003c0.078-0.005,0.162-0.007,0.211-0.011l0.129,0.01c0.1,0.004,0.196,0.004,0.284,0.014l0.04,0.007
		c0.034,0.006,0.069,0.011,0.089,0.011c0.093,0.014,0.189,0.03,0.298,0.052c0.021,0.005,0.047,0.012,0.07,0.019l0.168,0.043
		c0.038,0.01,0.074,0.019,0.143,0.041c0.063,0.02,0.125,0.043,0.219,0.081l0.062,0.021c0.023,0.007,0.048,0.015,0.063,0.022
		c0.093,0.042,0.19,0.09,0.275,0.133l0.088,0.047C390.302,29.966,390.392,30.021,390.481,30.08z"/>
</g>
<g class="line">
	<path fill="#0D47A1" d="M460.096,86.213h-4V45.38c0-1.103-0.897-2-2-2h-32.189v-4h32.189c3.309,0,6,2.691,6,6V86.213z"/>
</g>
<g class="recipient">
    <circle fill="#0D47A1" cx="37.12" cy="37.119" r="37.12"/>
<polygon fill="#E0E0E0" points="37.11,14.336 15.538,33.397 37.11,52.459 58.683,33.397 "/>
<rect x="20.851" y="24.459" fill="#BDBDBD" width="32.559" height="30.758"/>
<polygon fill="#FFFFFF" points="58.692,33.397 37.12,52.459 15.548,33.397 15.528,33.397 15.528,59.9 58.712,59.9 58.712,33.397 "/>
<path fill="#3C1E74" d="M46.22,31.746h-18.2v-1.982h18.2V31.746z M46.22,34.027h-18.2v1.982h18.2V34.027z M46.22,38.291h-18.2v1.982
	h18.2V38.291z"/>
</g>
<g class="Linx">
	<path class="logobg" fill="#2EB398" d="M421.906,21.685c0-2.2-1.8-4-4-4h-93.262c-2.2,0-4,1.8-4,4V63.43c0,2.2,1.8,4,4,4h93.262c2.2,0,4-1.8,4-4
		V21.685z"/>
		<path class="logotext" fill="#FFFFFF" d="M325.046,48.373h11.963v5.023h-11.963c-6.222,0-8.614-2.59-8.614-7.774v-14.02h6.221v14.02
	C322.652,46.515,323.137,48.373,325.046,48.373z M339.88,53.374h6.221V31.603h-6.221V53.374z M369.067,45.684
	c0,0.519-0.28,0.777-0.84,0.777c-1.435,0-6.098-10.873-7.163-12.531c-0.395-0.616-2.038-2.574-4.32-2.574
	c-5.182,0-7.774,0.512-7.774,7.271V53.4h6.219V38.626c0-0.518,0.28-0.778,0.842-0.778c1.166,0,6.1,15.91,11.483,15.91
	c4.392,0,7.774,0.145,7.774-7.357V31.603h-6.221V45.684z M386.093,41.398c0.593,0.644,0.593,1.69,0.007,2.325l-7.988,8.271
	l-1.274,1.402h8.18l5.026-5.48c0.275-0.299,0.643-0.463,1.033-0.463c0.389,0,0.755,0.164,1.033,0.467l4.201,4.557l0.022,0.027
	l0.013,0.012l0.795,0.881h8.182l-9.267-9.668c-0.593-0.642-0.593-1.687-0.004-2.323l9.394-9.803h-8.193l-0.906,1.013l-0.018,0.015
	l-0.019,0.026l-4.2,4.558c-0.278,0.298-0.645,0.464-1.033,0.464c-0.391,0-0.758-0.165-1.031-0.464l-5.144-5.611h-8.179l1.39,1.542
	L386.093,41.398z"/>
</g>
</svg>
