<?xml version="1.0" encoding="utf-8"?>
<!-- Generator: Adobe Illustrator 15.0.2, SVG Export Plug-In  -->
<!DOCTYPE svg PUBLIC "-//W3C//DTD SVG 1.1//EN" "http://www.w3.org/Graphics/SVG/1.1/DTD/svg11.dtd" [
	<!ENTITY ns_flows "http://ns.adobe.com/Flows/1.0/">
]>
<svg version="1.1"
	 xmlns="http://www.w3.org/2000/svg" xmlns:xlink="http://www.w3.org/1999/xlink" xmlns:a="http://ns.adobe.com/AdobeSVGViewerExtensions/3.0/"
	 x="0px" y="0px" width="18px" height="18px" viewBox="0 0 18 18" enable-background="new 0 0 18 18" xml:space="preserve">
<defs>
</defs>
<path fill="#999999" d="M17.342,5.434l-0.796,0.796l-4.773-4.774l0.796-0.796c0.878-0.879,2.303-0.879,3.182,0l1.592,1.593
	C18.221,3.13,18.221,4.555,17.342,5.434z M6.204,14.978c-0.22,0.22-0.22,0.575,0,0.796s0.575,0.221,0.796,0l8.751-8.75l-0.798-0.794
	L6.204,14.978z M2.225,11.001c-0.22,0.221-0.22,0.575,0,0.795c0.221,0.219,0.576,0.219,0.796,0l8.752-8.749l-0.794-0.795
	L2.225,11.001z M12.565,3.841l-8.75,8.752c-0.439,0.438-0.438,1.15,0,1.589c0.439,0.44,1.151,0.441,1.593,0l8.75-8.748L12.565,3.841
	z M5.406,16.566c-0.269-0.27-0.399-0.61-0.448-0.964c-0.114,0.018-0.229,0.035-0.347,0.035c-0.6,0-1.165-0.234-1.591-0.66
	c-0.425-0.427-0.659-0.989-0.659-1.592c0-0.108,0.018-0.215,0.033-0.32c-0.365-0.05-0.699-0.21-0.963-0.473
	c-0.026-0.026-0.035-0.062-0.06-0.087L0,18.001l5.48-1.374C5.457,16.604,5.429,16.589,5.406,16.566z"/>
</svg>
