<?xml version="1.0" encoding="utf-8"?>
<!-- Generator: Adobe Illustrator 15.0.2, SVG Export Plug-In  -->
<!DOCTYPE svg PUBLIC "-//W3C//DTD SVG 1.1//EN" "http://www.w3.org/Graphics/SVG/1.1/DTD/svg11.dtd" [
	<!ENTITY ns_flows "http://ns.adobe.com/Flows/1.0/">
]>
<svg version="1.1"
	 xmlns="http://www.w3.org/2000/svg" xmlns:xlink="http://www.w3.org/1999/xlink" xmlns:a="http://ns.adobe.com/AdobeSVGViewerExtensions/3.0/"
	 x="0px" y="0px" width="74px" height="74px" viewBox="0 0 74 74" enable-background="new 0 0 74 74" xml:space="preserve">
<defs>
</defs>
<circle fill="#0D47A1" cx="37.119" cy="37.119" r="37.119"/>
<polygon fill="#BDBDBD" points="26.676,42.098 7.74,47.244 7.74,28.985 26.676,23.84 "/>
<polygon fill="#BDBDBD" points="47.563,42.098 66.498,47.244 66.498,28.985 47.563,23.84 "/>
<circle fill="#BDBDBD" cx="37.119" cy="37.119" r="23.902"/>
<rect x="7.74" y="28.985" fill="#FFFFFF" width="58.758" height="18.259"/>
<path fill="#3C1E74" d="M15.666,33.211h1.428h0.111v0.115c-0.041,0.051-0.068,0.106-0.08,0.166c-0.014,0.059-0.02,0.161-0.02,0.307
	v2.818c0.143-0.21,0.307-0.38,0.492-0.511c0.184-0.13,0.385-0.229,0.598-0.296c0.215-0.068,0.424-0.102,0.625-0.102
	c0.379,0,0.709,0.08,0.99,0.242c0.283,0.16,0.5,0.421,0.656,0.779c0.156,0.359,0.234,0.822,0.234,1.393V41.6h-1.439v-3.438
	c0-0.336-0.033-0.605-0.1-0.807c-0.068-0.201-0.162-0.344-0.285-0.426c-0.121-0.082-0.266-0.123-0.434-0.123
	c-0.145,0-0.281,0.021-0.416,0.063c-0.135,0.04-0.258,0.104-0.367,0.19s-0.207,0.19-0.295,0.313c-0.09,0.124-0.154,0.264-0.197,0.42
	c-0.041,0.156-0.063,0.328-0.063,0.518V41.6h-1.439V33.211z"/>
<path fill="#3C1E74" d="M22.025,35.836h4.516l-0.012,1.123H22L22.025,35.836z M24.176,41.54c-0.248-0.107-0.453-0.28-0.617-0.521
	s-0.283-0.559-0.354-0.955c-0.072-0.397-0.096-0.89-0.068-1.477l0.162-4.144l1.477-0.187l0.113-0.012l0.014,0.111
	c-0.035,0.057-0.068,0.115-0.102,0.173s-0.055,0.156-0.063,0.297L24.6,36.533l0.063,0.088l-0.102,1.929
	c-0.025,0.536-0.006,0.95,0.057,1.243c0.064,0.293,0.16,0.492,0.291,0.6s0.287,0.16,0.473,0.16c0.27,0,0.512-0.055,0.725-0.164
	c0.215-0.108,0.416-0.234,0.6-0.378l0.303,1.034c-0.285,0.211-0.59,0.373-0.914,0.486s-0.672,0.17-1.041,0.17
	C24.717,41.701,24.424,41.648,24.176,41.54z"/>
<path fill="#3C1E74" d="M28.332,35.836h4.518l-0.014,1.123h-4.527L28.332,35.836z M30.484,41.54c-0.25-0.107-0.455-0.28-0.619-0.521
	s-0.281-0.559-0.354-0.955c-0.07-0.397-0.094-0.89-0.068-1.477l0.164-4.144l1.477-0.187l0.111-0.012l0.014,0.111
	c-0.033,0.057-0.066,0.115-0.102,0.173c-0.033,0.058-0.055,0.156-0.063,0.297l-0.139,1.706l0.063,0.088l-0.102,1.929
	c-0.023,0.536-0.004,0.95,0.059,1.243s0.16,0.492,0.289,0.6c0.131,0.107,0.289,0.16,0.473,0.16c0.27,0,0.512-0.055,0.727-0.164
	c0.215-0.108,0.414-0.234,0.6-0.378l0.303,1.034c-0.287,0.211-0.592,0.373-0.916,0.486c-0.322,0.113-0.67,0.17-1.039,0.17
	C31.023,41.701,30.732,41.648,30.484,41.54z"/>
<path fill="#3C1E74" d="M39.162,40.965c-0.223,0.246-0.475,0.43-0.756,0.553c-0.283,0.123-0.574,0.184-0.877,0.184
	c-0.211,0-0.414-0.025-0.611-0.076c-0.199-0.05-0.381-0.123-0.549-0.22s-0.309-0.217-0.416-0.36v2.662h-1.451l-0.014-7.871h1.414
	v0.819c0.135-0.219,0.283-0.397,0.447-0.536s0.35-0.242,0.555-0.309c0.207-0.068,0.424-0.102,0.65-0.102
	c0.32,0,0.621,0.063,0.902,0.191c0.281,0.127,0.527,0.316,0.738,0.57c0.209,0.254,0.375,0.566,0.498,0.939
	c0.121,0.372,0.184,0.809,0.184,1.308s-0.064,0.937-0.191,1.313C39.561,40.408,39.387,40.719,39.162,40.965 M37.139,40.592
	c0.184,0,0.357-0.033,0.518-0.098c0.158-0.064,0.299-0.171,0.422-0.32c0.121-0.148,0.217-0.348,0.283-0.598s0.102-0.561,0.102-0.932
	c0-0.37-0.051-0.69-0.15-0.96c-0.104-0.271-0.246-0.478-0.43-0.623c-0.186-0.146-0.408-0.222-0.67-0.229
	c-0.201-0.008-0.379,0.023-0.535,0.097s-0.287,0.189-0.396,0.351s-0.195,0.366-0.252,0.617c-0.061,0.249-0.09,0.551-0.09,0.906
	c0.01,0.241,0.029,0.459,0.063,0.652c0.035,0.193,0.082,0.361,0.146,0.502c0.063,0.141,0.141,0.258,0.234,0.35
	c0.092,0.094,0.199,0.164,0.326,0.213C36.836,40.567,36.979,40.592,37.139,40.592z"/>
<path fill="#3C1E74" d="M43.168,37.93c-0.26,0-0.482-0.097-0.668-0.291c-0.186-0.192-0.277-0.411-0.277-0.656
	c0-0.252,0.092-0.475,0.277-0.668s0.408-0.29,0.668-0.29c0.244,0,0.465,0.093,0.662,0.278c0.197,0.185,0.297,0.412,0.297,0.68
	c0,0.245-0.092,0.464-0.277,0.656C43.664,37.833,43.438,37.93,43.168,37.93z M43.168,41.701c-0.27,0-0.494-0.094-0.674-0.283
	c-0.182-0.189-0.271-0.41-0.271-0.663c0-0.252,0.092-0.478,0.277-0.675s0.408-0.297,0.668-0.297c0.244,0,0.465,0.096,0.662,0.284
	c0.197,0.189,0.297,0.419,0.297,0.688c0,0.245-0.092,0.463-0.271,0.656C43.674,41.604,43.445,41.701,43.168,41.701z"/>
<path fill="#3C1E74" d="M48.404,42.143l-1.313-0.567l3.885-8.389l1.287,0.655L48.404,42.143z"/>
<path fill="#3C1E74" d="M54.711,42.143l-1.313-0.567l3.887-8.389l1.287,0.655L54.711,42.143z"/>
</svg>
