<?xml version="1.0" encoding="utf-8"?>
<!-- Generator: Adobe Illustrator 15.0.2, SVG Export Plug-In  -->
<!DOCTYPE svg PUBLIC "-//W3C//DTD SVG 1.1//EN" "http://www.w3.org/Graphics/SVG/1.1/DTD/svg11.dtd" [
	<!ENTITY ns_flows "http://ns.adobe.com/Flows/1.0/">
]>
<svg version="1.1"
	 xmlns="http://www.w3.org/2000/svg" xmlns:xlink="http://www.w3.org/1999/xlink" xmlns:a="http://ns.adobe.com/AdobeSVGViewerExtensions/3.0/"
	 x="0px" y="0px" width="505px" height="1058px" viewBox="0 0 505 1058" enable-background="new 0 0 505 1058" xml:space="preserve"
	>
<defs>
</defs>
<linearGradient id="SVGID_2_" gradientUnits="userSpaceOnUse" x1="299.707" y1="16.7695" x2="299.707" y2="1140.8278">
	<stop  offset="0" style="stop-color:#764A9F"/>
	<stop  offset="0.4667" style="stop-color:#A65D8F"/>
	<stop  offset="1" style="stop-color:#ECBD68"/>
</linearGradient>
<path fill="url(#SVGID_2_)" d="M404.408,863.112c-1.381,0-2.5-1.119-2.5-2.5V722.329c0-6.188,3.428-14.463,7.803-18.839
	l18.441-18.441c3.437-3.437,6.34-10.445,6.34-15.304l0.002-239.358c0-4.858-2.903-11.867-6.34-15.304l-202.83-202.828
	c-3.436-3.436-10.443-6.339-15.303-6.339H193.75c-6.188,0-14.463-3.428-18.839-7.804l-7.188-7.188
	c-4.375-4.376-7.803-12.651-7.803-18.839V58.521c0-1.381,1.119-2.5,2.5-2.5s2.5,1.119,2.5,2.5v113.563
	c0,4.858,2.902,11.867,6.339,15.304l7.188,7.188c3.436,3.436,10.443,6.339,15.303,6.339h16.271c6.188,0,14.463,3.428,18.839,7.804
	l202.829,202.828c4.377,4.376,7.805,12.651,7.805,18.839l-0.002,239.358c0,6.188-3.428,14.463-7.804,18.839l-18.442,18.441
	c-3.436,3.437-6.338,10.445-6.338,15.304v138.283C406.908,861.993,405.789,863.112,404.408,863.112z"/>
<linearGradient id="SVGID_4_" gradientUnits="userSpaceOnUse" x1="348.4805" y1="16.7686" x2="348.4804" y2="1140.8293">
	<stop  offset="0" style="stop-color:#764A9F"/>
	<stop  offset="0.4667" style="stop-color:#A65D8F"/>
	<stop  offset="1" style="stop-color:#ECBD68"/>
</linearGradient>
<path fill="url(#SVGID_4_)" d="M295.229,993.112c-1.381,0-2.5-1.119-2.5-2.5V738.384c0-4.858-2.903-11.867-6.34-15.304
	l-35.928-35.928c-4.375-4.376-7.803-12.651-7.803-18.839l-0.002-352.558c0-6.188,3.428-14.463,7.804-18.839l147.942-147.941
	c3.436-3.437,6.338-10.445,6.338-15.304v-30.393c0-6.188,3.428-14.463,7.804-18.839l37.493-37.492c0.975-0.977,2.559-0.977,3.535,0
	c0.977,0.976,0.977,2.559,0,3.535L416.08,87.976c-3.437,3.437-6.34,10.445-6.34,15.304v30.393c0,6.188-3.428,14.463-7.803,18.839
	L253.996,300.452c-3.437,3.437-6.34,10.445-6.34,15.304l0.002,352.558c0,4.858,2.902,11.867,6.339,15.304l35.927,35.928
	c4.377,4.376,7.805,12.651,7.805,18.839v252.229C297.729,991.993,296.609,993.112,295.229,993.112z"/>
<linearGradient id="SVGID_5_" gradientUnits="userSpaceOnUse" x1="360.2666" y1="16.7686" x2="360.2665" y2="1140.8268">
	<stop  offset="0" style="stop-color:#764A9F"/>
	<stop  offset="0.4667" style="stop-color:#A65D8F"/>
	<stop  offset="1" style="stop-color:#ECBD68"/>
</linearGradient>
<path fill="url(#SVGID_5_)" d="M354.445,914.062c-1.381,0-2.5-1.119-2.5-2.5l0.002-289.99c0-4.858-2.903-11.867-6.34-15.304
	l-21.102-21.102c-4.375-4.376-7.803-12.651-7.803-18.839V150.648c0-6.188,3.428-14.463,7.803-18.839l75.057-75.056
	c0.977-0.977,2.561-0.977,3.535,0c0.977,0.977,0.977,2.56,0,3.535l-75.057,75.056c-3.436,3.437-6.338,10.445-6.338,15.304v415.679
	c0,4.858,2.902,11.867,6.339,15.304l21.101,21.102c4.377,4.376,7.805,12.651,7.805,18.839l-0.002,289.99
	C356.945,912.942,355.826,914.062,354.445,914.062z"/>
<linearGradient id="SVGID_6_" gradientUnits="userSpaceOnUse" x1="176.6768" y1="16.7686" x2="176.6767" y2="1140.828">
	<stop  offset="0" style="stop-color:#764A9F"/>
	<stop  offset="0.4667" style="stop-color:#A65D8F"/>
	<stop  offset="1" style="stop-color:#ECBD68"/>
</linearGradient>
<path fill="url(#SVGID_6_)" d="M308.123,855.112c-1.381,0-2.5-1.119-2.5-2.5l0.002-497.21c0-6.188,3.428-14.463,7.803-18.839
	l28.588-28.588c3.437-3.437,6.34-10.445,6.339-15.304v-8.51c-0.001-4.859-2.903-11.867-6.34-15.304L241.438,168.279
	c-3.437-3.436-10.444-6.339-15.305-6.339l-97.508,0.002c-6.189,0-14.465-3.428-18.84-7.804L0.732,45.085
	c-0.977-0.977-0.977-2.559,0-3.535c0.975-0.977,2.559-0.977,3.535,0L113.32,150.604c3.437,3.436,10.444,6.339,15.305,6.339
	l97.508-0.002c6.189,0,14.465,3.428,18.84,7.804l100.578,100.579c4.375,4.376,7.803,12.651,7.804,18.839v8.51
	c0.001,6.188-3.427,14.463-7.803,18.839l-28.589,28.588c-3.436,3.437-6.338,10.445-6.338,15.304l-0.002,497.21
	C310.623,853.993,309.504,855.112,308.123,855.112z"/>
<linearGradient id="SVGID_7_" gradientUnits="userSpaceOnUse" x1="284.8252" y1="16.7686" x2="284.8251" y2="1140.8286">
	<stop  offset="0" style="stop-color:#764A9F"/>
	<stop  offset="0.4667" style="stop-color:#A65D8F"/>
	<stop  offset="1" style="stop-color:#ECBD68"/>
</linearGradient>
<path fill="url(#SVGID_7_)" d="M279.732,901.976c-1.381,0-2.5-1.119-2.5-2.5l-0.002-442.557c0-4.858-2.903-11.867-6.34-15.304
	l-9.411-9.412c-4.376-4.377-7.804-12.651-7.804-18.839V156.38c0-6.188,3.428-14.463,7.804-18.839l43.155-43.155
	c3.437-3.437,6.34-10.445,6.34-15.304V2.5c0-1.381,1.119-2.5,2.5-2.5s2.5,1.119,2.5,2.5v76.582c0,6.188-3.428,14.463-7.804,18.839
	l-43.155,43.155c-3.437,3.437-6.34,10.445-6.34,15.304v256.984c0,4.858,2.903,11.867,6.34,15.304l9.411,9.412
	c4.376,4.377,7.804,12.651,7.804,18.839l0.002,442.557C282.232,900.856,281.113,901.976,279.732,901.976z"/>
<linearGradient id="SVGID_8_" gradientUnits="userSpaceOnUse" x1="419.5156" y1="16.7686" x2="419.5156" y2="1140.8313">
	<stop  offset="0" style="stop-color:#764A9F"/>
	<stop  offset="0.4667" style="stop-color:#A65D8F"/>
	<stop  offset="1" style="stop-color:#ECBD68"/>
</linearGradient>
<path fill="url(#SVGID_8_)" d="M336.818,1057.665c-1.381,0-2.5-1.119-2.5-2.5V479.074c0-6.188,3.428-14.463,7.803-18.839
	l32.545-32.544c3.436-3.437,6.338-10.445,6.338-15.304V247.465c0-6.188,3.428-14.463,7.804-18.839l45.655-45.655
	c3.437-3.437,6.34-10.445,6.34-15.304v-28.388c0-6.188,3.428-14.463,7.803-18.839l51.84-51.84c0.977-0.977,2.559-0.977,3.535,0
	s0.977,2.559,0,3.535l-51.84,51.84c-3.436,3.437-6.338,10.445-6.338,15.304v28.388c0,6.188-3.428,14.463-7.804,18.839
	l-45.655,45.655c-3.437,3.437-6.34,10.445-6.34,15.304v164.923c0,6.188-3.428,14.463-7.803,18.839l-32.545,32.544
	c-3.436,3.437-6.338,10.445-6.338,15.304v576.091C339.318,1056.546,338.199,1057.665,336.818,1057.665z"/>
<linearGradient id="SVGID_9_" gradientUnits="userSpaceOnUse" x1="347.6406" y1="16.7686" x2="347.6406" y2="1140.8276">
	<stop  offset="0" style="stop-color:#764A9F"/>
	<stop  offset="0.4667" style="stop-color:#A65D8F"/>
	<stop  offset="1" style="stop-color:#ECBD68"/>
</linearGradient>
<path fill="url(#SVGID_9_)" d="M386.648,497.83c-0.639,0-1.279-0.244-1.768-0.732c-0.977-0.977-0.977-2.559,0-3.535l18.459-18.459
	c3.437-3.437,6.34-10.445,6.34-15.304l-0.002-228.969c0-4.858-2.902-11.867-6.339-15.304L288.404,100.593
	c-4.375-4.376-7.803-12.651-7.803-18.839V69.946c0-1.381,1.119-2.5,2.5-2.5s2.5,1.119,2.5,2.5v11.808
	c0,4.858,2.902,11.867,6.339,15.304l114.935,114.935c4.375,4.376,7.803,12.651,7.803,18.839L414.68,459.8
	c0,6.188-3.428,14.463-7.804,18.839l-18.46,18.459C387.929,497.586,387.289,497.83,386.648,497.83z"/>
<linearGradient id="SVGID_10_" gradientUnits="userSpaceOnUse" x1="380.7383" y1="16.7695" x2="380.7382" y2="1140.8295">
	<stop  offset="0" style="stop-color:#764A9F"/>
	<stop  offset="0.4667" style="stop-color:#A65D8F"/>
	<stop  offset="1" style="stop-color:#ECBD68"/>
</linearGradient>
<path fill="url(#SVGID_10_)" d="M374.828,961.112c-1.381,0-2.5-1.119-2.5-2.5V517.151c0-6.189,2.918-13.954,6.643-17.678l5.91-5.911
	c0.977-0.978,2.56-0.977,3.536,0c0.976,0.977,0.976,2.56-0.001,3.535l-5.91,5.911c-2.807,2.807-5.178,9.283-5.178,14.143v441.461
	C377.328,959.993,376.209,961.112,374.828,961.112z"/>
</svg>
