<?xml version="1.0" encoding="utf-8"?>
<!-- Generator: Adobe Illustrator 15.0.2, SVG Export Plug-In  -->
<!DOCTYPE svg PUBLIC "-//W3C//DTD SVG 1.1//EN" "http://www.w3.org/Graphics/SVG/1.1/DTD/svg11.dtd" [
	<!ENTITY ns_flows "http://ns.adobe.com/Flows/1.0/">
]>
<svg version="1.1"
	 xmlns="http://www.w3.org/2000/svg" xmlns:xlink="http://www.w3.org/1999/xlink" xmlns:a="http://ns.adobe.com/AdobeSVGViewerExtensions/3.0/"
	 x="0px" y="0px" width="388px" height="120px" viewBox="-36.555 -6.42 388 120" enable-background="new -36.555 -6.42 388 120"
	 xml:space="preserve">
<defs>
</defs>
<g>
	<path fill="#0D47A1" d="M13.965,93.98c0.037,0.739,0.09,1.474,0.158,2.211l0.017,0.189c0.148,1.564,0.337,3.024,0.553,4.401
		l0.221,1.414l-12.747,6.705l1.44,4.647h263.305c-0.065-0.573-0.14-1.147-0.232-1.719l-0.142-0.901l8.178-4.312l-2.671-8.587
		l-9.15,1.056l-0.4-0.806c-0.212-0.43-0.429-0.862-0.646-1.289l-0.081-0.165c-0.147-0.291-0.3-0.574-0.453-0.845l-0.287-0.518
		c-0.146-0.264-0.277-0.499-0.417-0.731c-0.108-0.188-0.214-0.355-0.311-0.532l-0.127-0.206c-0.075-0.11-0.135-0.209-0.199-0.327
		l-0.391-0.747l5.798-7.088l-5.794-6.872l-8.029,4.542l-0.685-0.613c-0.364-0.319-0.742-0.645-1.132-0.965l-0.737-0.593
		c-0.114-0.098-0.231-0.191-0.348-0.279l-0.37-0.29c-0.278-0.209-0.55-0.421-0.83-0.623l-0.74-0.538l2.73-8.815l-7.947-4.198
		l-5.677,7.15l-0.785-0.176c-0.056-0.014-0.177-0.043-0.315-0.099c-0.89-0.309-1.685-0.562-2.428-0.778l-0.611-0.177
		c-0.56-0.145-1.14-0.297-1.72-0.438l-0.889-0.213l-0.927-9.18l-8.954-0.762l-2.464,8.89l-0.91,0.057
		c-0.411,0.032-0.834,0.064-1.237,0.102l-0.257,0.017c-1.065,0.098-1.988,0.213-2.863,0.356l-0.912,0.145l-4.305-8.168l-8.589,2.652
		l1.057,9.177l-0.831,0.393c-0.413,0.197-0.84,0.409-1.247,0.627l-0.22,0.112c-0.308,0.156-0.615,0.314-0.923,0.483
		c-0.04,0.027-0.153,0.094-0.269,0.155l-0.144,0.085c-0.181,0.098-0.338,0.189-0.498,0.278l-0.225,0.125
		c-0.255,0.151-0.524,0.314-0.78,0.476l-0.92,0.561l-0.769-0.534l-6.442-5.268l-6.867,5.788l4.542,8.037l-0.602,0.679
		c-0.325,0.376-0.646,0.749-0.97,1.146c-0.121,0.142-0.227,0.271-0.331,0.405l-0.576,0.706c-0.287,0.365-0.582,0.76-0.87,1.164
		l-0.544,0.747l-0.734-0.228l0.103-1.202l-13.867-3.853l-0.085-1.424c-0.035-0.544-0.083-1.094-0.128-1.637l-0.067-0.77
		c-0.132-1.471-0.309-2.928-0.539-4.386l-0.22-1.417l12.736-6.713l-4.152-13.386l-14.267,1.644l-0.621-1.259
		c-0.331-0.664-0.672-1.342-1.008-2.005l-0.131-0.257c-0.234-0.458-0.469-0.887-0.704-1.319l-0.449-0.804
		c-0.227-0.41-0.433-0.781-0.654-1.142c-0.164-0.293-0.324-0.557-0.48-0.824l-0.197-0.325c-0.121-0.173-0.213-0.329-0.305-0.513
		l-0.611-1.162l9.034-11.048l-9.032-10.716l-12.517,7.083l-1.069-0.952c-0.565-0.504-1.156-1.01-1.759-1.508l-1.156-0.93
		c-0.176-0.147-0.356-0.295-0.537-0.432l-0.58-0.449c-0.43-0.331-0.854-0.655-1.29-0.969l-1.155-0.841l4.263-13.743l-12.398-6.542
		l-8.843,11.142l-1.228-0.275c-0.09-0.016-0.276-0.068-0.492-0.154c-1.383-0.479-2.625-0.873-3.783-1.211l-0.949-0.271
		c-0.875-0.228-1.775-0.472-2.688-0.688l-1.38-0.326L103.84,1.185L89.884,0l-3.841,13.856l-1.426,0.091
		c-0.638,0.042-1.296,0.096-1.93,0.155l-0.399,0.027c-1.66,0.15-3.093,0.329-4.465,0.555l-1.415,0.228l-6.717-12.74L56.303,6.313
		l1.65,14.301l-1.296,0.611c-0.649,0.306-1.311,0.644-1.946,0.978l-0.343,0.176c-0.478,0.244-0.954,0.49-1.435,0.754
		c-0.063,0.048-0.243,0.152-0.421,0.247l-0.222,0.127c-0.287,0.153-0.527,0.301-0.771,0.432l-0.358,0.203
		c-0.397,0.234-0.818,0.486-1.219,0.74l-1.429,0.869l-1.201-0.833l-10.039-8.211l-10.706,9.02l7.08,12.532l-0.939,1.064
		c-0.505,0.575-1.005,1.161-1.508,1.778c-0.189,0.222-0.353,0.43-0.521,0.641l-0.891,1.095c-0.45,0.573-0.909,1.183-1.364,1.809
		l-0.84,1.169l-13.757-4.251L7.299,53.937l11.518,9.156l-0.806,1.357c-0.457,1.328-0.87,2.648-1.23,3.919
		c-0.085,0.293-0.155,0.511-0.208,0.722c-0.278,0.996-0.525,1.919-0.75,2.852l-0.332,1.372L1.189,74.754L0,88.712l13.88,3.842
		L13.965,93.98z"/>
</g>
</svg>
