<?xml version="1.0" encoding="utf-8"?>
<!-- Generator: Adobe Illustrator 15.0.2, SVG Export Plug-In  -->
<!DOCTYPE svg PUBLIC "-//W3C//DTD SVG 1.1//EN" "http://www.w3.org/Graphics/SVG/1.1/DTD/svg11.dtd" [
	<!ENTITY ns_flows "http://ns.adobe.com/Flows/1.0/">
]>
<svg version="1.1"
	 xmlns="http://www.w3.org/2000/svg" xmlns:xlink="http://www.w3.org/1999/xlink" xmlns:a="http://ns.adobe.com/AdobeSVGViewerExtensions/3.0/"
	 x="0px" y="0px" width="74px" height="74px" viewBox="0 0 74 74" enable-background="new 0 0 74 74" xml:space="preserve">
<defs>
</defs>
<circle fill="#0D47A1" cx="37.119" cy="37.119" r="37.119"/>
<path fill="#FFFFFF" d="M25.963,42.213c0,2.24-1.811,4.051-4.051,4.051s-4.05-1.811-4.05-4.051s1.81-4.051,4.05-4.051h4.051V42.213z
	 M27.99,42.213c0-2.24,1.811-4.051,4.049-4.051c2.24,0,4.053,1.811,4.053,4.051V52.34c0,2.24-1.813,4.051-4.053,4.051
	c-2.238,0-4.049-1.811-4.049-4.051V42.213z"/>
<path fill="#FFFFFF" d="M32.039,25.949c-2.238,0-4.049-1.812-4.049-4.052s1.811-4.051,4.049-4.051c2.24,0,4.053,1.811,4.053,4.051
	v4.052H32.039z M32.039,28.004c2.24,0,4.053,1.811,4.053,4.051s-1.813,4.051-4.053,4.051H21.883c-2.24,0-4.051-1.811-4.051-4.051
	s1.811-4.051,4.051-4.051H32.039z"/>
<path fill="#FFFFFF" d="M48.273,32.055c0-2.24,1.811-4.051,4.051-4.051s4.051,1.811,4.051,4.051s-1.811,4.051-4.051,4.051h-4.051
	V32.055z M46.248,32.055c0,2.24-1.811,4.051-4.051,4.051s-4.051-1.811-4.051-4.051V21.897c0-2.24,1.811-4.051,4.051-4.051
	s4.051,1.811,4.051,4.051V32.055z"/>
<path fill="#FFFFFF" d="M42.197,48.289c2.24,0,4.051,1.811,4.051,4.051s-1.811,4.051-4.051,4.051s-4.051-1.811-4.051-4.051v-4.051
	H42.197z M42.197,46.264c-2.24,0-4.051-1.811-4.051-4.051s1.811-4.051,4.051-4.051h10.156c2.242,0,4.053,1.811,4.053,4.051
	s-1.811,4.051-4.053,4.051H42.197z"/>
</svg>
